<svg width="1440" height="1024" viewBox="0 0 1440 1024" fill="none" xmlns="http://www.w3.org/2000/svg">
<g clip-path="url(#clip0_8_3)">
<rect width="1440" height="1024" fill="white"/>
<path d="M0 0H1440V1033.55H0V0Z" fill="#EAC435"/>
<path d="M-58.5 319C-25.5001 284 133 365 214.5 521C306.5 648.5 438.5 492.5 346 415.5C350.5 308 -14.5001 29 12 -26L120.523 -66.696C121.525 -67.2152 122.682 -67.6505 124 -68L120.523 -66.696C71.3511 -41.2173 396.826 186.014 511 358.5C634 331.327 766 415.5 900 415.5C1030 385 979.5 791.5 1170.5 780.5C1170.5 780.5 1452 710 1489.5 780.5V934.5C1384 980.5 1179.5 941 1085 921.5C933 921.5 742 824.5 682.5 710C577 631 392.5 780.5 247.5 756.5C247.5 756.5 -131 593.5 -179 473L-58.5 319Z" fill="#FAD445"/>
<path d="M1127 394C1007 431.5 811 46 698.5 29L1458.5 -27.5L1496 91C1494 153.5 1340 91 1264.5 204C1114 251 1127 294.5 1264.5 304C1264.5 304 1400 356.5 1475 304V416.5C1458.5 484.5 1264.5 373.5 1127 394Z" fill="#FAD445"/>
</g>
<defs>
<clipPath id="clip0_8_3">
<rect width="1440" height="1024" fill="white"/>
</clipPath>
</defs>
</svg>
